# xmcd
#
# Track frame offsets:
#	150
#	14401
#	22041
#	37546
#	51943
#	65999
#	81597
#	91265
#	105529
#	120546
#	133362
#	147878
#
# Disc length: 2145 seconds
#
# Revision: 0
# Processed by: cddbd v1.5.2PL0 Copyright (c) Steve Scherf et al.
# Submitted via: EasyCDDAExtractor 16.0.6.1
#
DISCID=a7085f0c
DTITLE=Συλλογικός δίσκος - Τα παλιά λαϊκά
DYEAR=1998
DGENRE=Λαϊκή
TTITLE0=Λύδια Γιώτα - Νύχτωσε χωρίς φεγγάρι [Α. Καλδάρα]
TTITLE1=Μπιθικώτσης Γρηγόρης - Γιατί με ξύπνησες πρωί [Β. Τσιτσάνη]
TTITLE2=Καζαντζίδης Στέλιος - Τέτοια κούκλα και τσαχπίνα [Χ. Κολοκοτρώνη]
TTITLE3=Πάνου Πόλυ-Χρηστάκης - Σβήσε το φως να κοιμηθούμε [Γ. Παπαϊωάννου-Χ. Β
TTITLE3=ασιλειάδη]
TTITLE4=Μπιθικώτσης Γρηγόρης - Τα ματόκλαδά σου λάμπουν [Μ. Βαμβακάρη]
TTITLE5=Καζαντζίδης Στέλιος - Την έδιωξα κι όμως την αγαπώ [Μ. Χιώτη-Χ. Κολοκο
TTITLE5=τρώνη]
TTITLE6=Ρεπάνης Αντώνης - Βαδίζω και παραμιλώ [Γ. Παπαϊωάννου]
TTITLE7=Περπινιάδης Βαγγέλης - Η αχάριστη [Β. Τσιτσάνη]
TTITLE8=Καζαντζίδης Στέλιος - Αυτή η νύχτα μένει [Σ. Καζαντζίδη]
TTITLE9=Γαβαλάς Πάνος-Κούρτη Ρία - Εβίβα ρεμπέτες [Α. Καλδάρα]
TTITLE10=Μπιθικώτσης Γρηγόρης - Του Βοτανικού ο μάγκας [Γ. Μπιθικώτση-Λ. Τσώλη
TTITLE10=]
TTITLE11=Πάνου Πόλυ - Τα λιμάνια [Β. Τσιτσάνη]
EXTD=
EXTT0=
EXTT1=
EXTT2=
EXTT3=
EXTT4=
EXTT5=
EXTT6=
EXTT7=
EXTT8=
EXTT9=
EXTT10=
EXTT11=
PLAYORDER=
